<svg xmlns="http://www.w3.org/2000/svg" xmlns:xlink="http://www.w3.org/1999/xlink" width="2000" zoomAndPan="magnify" viewBox="0 0 1500 1499.999933" height="2000" preserveAspectRatio="xMidYMid meet" version="1.0"><metadata><manifest xmlns:c2pa="http://c2pa.org/manifest">AABCHWp1bWIAAAAeanVtZGMycGEAEQAQgAAAqgA4m3EDYzJwYQAAAEH3anVtYgAAAEdqdW1kYzJtYQARABCAAACqADibcQN1cm46YzJwYTozNmNlOTYzYi00MzFkLTQ5YzEtYjNmOS0wNTY0M2MzZTJmOGEAAAAB5Gp1bWIAAAApanVtZGMyYXMAEQAQgAAAqgA4m3EDYzJwYS5hc3NlcnRpb25zAAAAAO5qdW1iAAAAQWp1bWRjYm9yABEAEIAAAKoAOJtxE2MycGEuYWN0aW9ucy52MgAAAAAYYzJzaAs0uJ9sOZ6dhWgBKxrFproAAAClY2JvcqFnYWN0aW9uc4GjZmFjdGlvbmxjMnBhLmNyZWF0ZWRtc29mdHdhcmVBZ2VudGhDYW52YSBBSXFkaWdpdGFsU291cmNlVHlwZXhTaHR0cDovL2N2LmlwdGMub3JnL25ld3Njb2Rlcy9kaWdpdGFsc291cmNldHlwZS9jb21wb3NpdGVXaXRoVHJhaW5lZEFsZ29yaXRobWljTWVkaWEAAADFanVtYgAAAEBqdW1kY2JvcgARABCAAACqADibcRNjMnBhLmhhc2guZGF0YQAAAAAYYzJzaAOV3CniofcLcAws1CQypSYAAAB9Y2JvcqVqZXhjbHVzaW9uc4GiZXN0YXJ0GQETZmxlbmd0aBlYKGRuYW1lbmp1bWJmIG1hbmlmZXN0Y2FsZ2ZzaGEyNTZkaGFzaFggfcw8XpY+lVYzUPxPi6bxaL/laZEUM8tbidoniahxgPhjcGFkSQAAAAAAAAAAAAAAAgtqdW1iAAAAJ2p1bWRjMmNsABEAEIAAAKoAOJtxA2MycGEuY2xhaW0udjIAAAAB3GNib3Knamluc3RhbmNlSUR4LHhtcDppaWQ6OTFmNDRiZWYtZjk2MS00NTM0LThlYzMtY2M4N2QwM2NiMjA2dGNsYWltX2dlbmVyYXRvcl9pbmZvo2RuYW1lZ2MycGEtcnNndmVyc2lvbmUwLjAuMHdvcmcuY29udGVudGF1dGguYzJwYV9yc2UwLjAuMGlzaWduYXR1cmV4TXNlbGYjanVtYmY9L2MycGEvdXJuOmMycGE6MzZjZTk2M2ItNDMxZC00OWMxLWIzZjktMDU2NDNjM2UyZjhhL2MycGEuc2lnbmF0dXJlcmNyZWF0ZWRfYXNzZXJ0aW9uc4GiY3VybHgpc2VsZiNqdW1iZj1jMnBhLmFzc2VydGlvbnMvYzJwYS5oYXNoLmRhdGFkaGFzaFggGVt0o8Nmv6cd06IjaOSvpJJn8Vsf/WDgo6QEVPtPSi9zZ2F0aGVyZWRfYXNzZXJ0aW9uc4GiY3VybHgqc2VsZiNqdW1iZj1jMnBhLmFzc2VydGlvbnMvYzJwYS5hY3Rpb25zLnYyZGhhc2hYIHOKQImljws5OXplvlpC4T66SBxBfpDPlgiJSgp9QuCJaGRjOnRpdGxlZTEuc3ZnY2FsZ2ZzaGEyNTYAAD25anVtYgAAAChqdW1kYzJjcwARABCAAACqADibcQNjMnBhLnNpZ25hdHVyZQAAAD2JY2JvctKEWRKBogE4Jhghg1kFPzCCBTswggMjoAMCAQICEQDV0Rf95OiP52eBw3zi40QcMA0GCSqGSIb3DQEBDQUAMCIxIDAeBgNVBAMTF1NpZ25pbmcgSW50ZXJtZWRpYXRlIENBMB4XDTI2MDcxMTIzNTEzNFoXDTI2MDcxOTIzNTEzNFowODEOMAwGA1UEChMFQ2FudmExDjAMBgNVBAsTBUNhbnZhMRYwFAYDVQQDEw1DYW52YSBTaWduaW5nMIICIjANBgkqhkiG9w0BAQEFAAOCAg8AMIICCgKCAgEAzh42uREaL7kQHXkClcY2roFjCAnpEwMm8TW2z+YVrggLEda7ZsEfVZBEZ8GY2IyST2K84M8N2lvb31qo4he+f3THWxV+Tc1s+2SzSW5MyZkMlaqeipziF/6I6Wzglsos1tCmEjrx/Mxrm7aJGrixJvwJdoFucQArQlPENy3XashomXtjLBLv/A5XV2rqDk/NdweLyHLJ36IuR4ESTXWBQG16uJavnapNWCRKajxpAQMx2p8DpYPAfKuhoqG7wEeQIaS/wm+PTr0dz3WflvcAwZYCXOn/ozse7NXOglFxxU1Qb7/PCSGYzEf05kgS9Nc4QX1htStvzXycq9w0HGmITT5z4Je47WTJk1hrBaeOcEpVfcHSRa7B59tpTnsl/S+hK4xcivQ+ujWc5CPfaNpSxMv9Azltjxn9hU44gDHC4hMr2pkcMs2qW5aoUDtu8rXFuaR6vyAHSmLYS5QPs84RR4v7XrGe8i0SxYKlAtMVtHyDnEEyVp6GPWzcFjJZCDAPES6tKraQyeaYM/w34jwRS4Bc6FHJx9KiHTPuGis5G4iWLuFBovmE6WtUepeMA2PPFLfyeZFprBVCVi+S/pQY6/+n8yJQA1QZqceNl4kLD4bBXnDnTR/CN3jdAvXJnn1zYADX7vYCpsHusQ40pv5G44bBYWoDvOzeSfViyeKTLysCAwEAAaNWMFQwDgYDVR0PAQH/BAQDAgeAMBMGA1UdJQQMMAoGCCsGAQUFBwMEMAwGA1UdEwEB/wQCMAAwHwYDVR0jBBgwFoAUq4jaZojoh1/YlDrdtzaqU0BSmX4wDQYJKoZIhvcNAQENBQADggIBAFn0K5t/+xuskM1CQ5QN0Y8TZ1rcAR0j4Ebw88bnOK2f11+I4tkvwuhP0CHWWGhnnWs2tSdD6lg0zcqRFuA08ugKocUaQUU0Uk1Hj7JTLBMNqXk/a1nZhXJZ8xUBACv3yTSv4OGzBoxeuDa/gipiW9UT6cWn+nAwlqaQRSejtCP0HW9905JJwOqpYMpsN7tUmBjgZ+TCk6afcTnOtKOmUF1TwljzjTMZeWky0fFOjlAdGY1DiwedET55N1JbmRf+MuAmS/SVjiAHCQ3l6dekHKTaP8XxVQX72cPEnkbuvthhgEfMw/QIo3NltB6dq1qQWHppnx2I/naqP3j7pXspqFdXPt//o9hwrL1q2shwF5q0oOlbhyefOTotsdmo/T9DoKY3RTYEAUa8zF6h4nrixdbU+n4foy3bbVUPrAglIpI9cn4qA57ltR94K404zPQnbCXblEA0H0EZqgd5LwEAxOa7Ak1sR77ZRuG/8rPOeogizkGgUtXe/soUL2HMGo6YjJ1SqTGllZNAuXeeTp2FXDfSztocC5kGFrOftom9or8Jvr/NO6akiR07+5J245WB38x6SflmdULLgEtGCJSmGW/iS2yIq2b6V60kjgJEoRfTjdBV+EGVE1z8N6DCZcqd5CHhoig5uzuLhGvqDbrNBOgnGhDvTgYe7Gz/VQtJhPRjWQboMIIG5DCCBMygAwIBAgIUFywTzDN9IdeA2lFDlZW+XNZ6ANkwDQYJKoZIhvcNAQELBQAwbTELMAkGA1UEBhMCQVUxDDAKBgNVBAgTA05TVzEPMA0GA1UEBxMGU3lkbmV5MRMwEQYDVQQKEwpDYW52YSBQcm9kMRAwDgYDVQQLEwdTaWduaW5nMRgwFgYDVQQDEw9TaWduaW5nIENBIFByb2QwHhcNMjYwNzAxMDUzNzU1WhcNMjYwNzMxMDUzODI1WjAiMSAwHgYDVQQDExdTaWduaW5nIEludGVybWVkaWF0ZSBDQTCCAiIwDQYJKoZIhvcNAQEBBQADggIPADCCAgoCggIBANLWVW5TbqnPKqVhSWn/qdaHeJnSILmwrvXzy8+69zVojMQGv7FlLFjW7mD5lky7rmVoYmzfDf0Hr1Z1UY/VpmS6JsrLR6nj9mqA+izeh5OHfxvvi0OihhMP9mN87XH5msYIinxHZFhV2M1WNt0xvS5UTqSKJvbjv3ybmHrIhwAZH2JN5aCnoxvZCIlBoSRr06grK05lsecTiuZOPIiK1f3m0fpgf2clpdFq838qWYIHwclPxQRhJkQL1zLMkeQ8zuvnfDs6SAGRstO6SUuj42YcUFGvZTRwueVeBYZi/MxPtape2hljveaOaA34QpxMdXZIDZdvDeKOcQICJ3C99laxpPhQF82tXayfhrVVn16UgKVyQU7upIxbs19lDfF/PNYm6rtApbmgTP6e7mrSk+dQQDXTwdAnKIzmT8Rl9a1RKYi4i6aJkhiKx+Reww7nzfXeJvMTbLNQad1m4jm49+Mjr3AC9lxDaNERVwQHBc68w+cP+W0OziQnzE6zizHOaIY/fQFTD961MOmHxJr2BqTxYnzhOR8JVoEv0BydikKieMtZn8NrvFR52HIa8J0tL3RwCTieJM4zMco9IACVKJOyMCYi7WJp9lw64O12Gi7sySvwVA5uo4fh5SThQcKrDq+XFkNeB1oI77/1UG3iUtIbkmrC7j2PGH60pjBP9RSXAgMBAAGjggHFMIIBwTAOBgNVHQ8BAf8EBAMCAQYwEgYDVR0TAQH/BAgwBgEB/wIBADAdBgNVHQ4EFgQUq4jaZojoh1/YlDrdtzaqU0BSmX4wHwYDVR0jBBgwFoAUSlxt/ndQaL1jKWFk7YbiIcsE4x0wgdcGCCsGAQUFBwEBBIHKMIHHMEwGCCsGAQUFBzABhkBodHRwczovL3BraS5jYW52YS1pbnRlcm5hbC5jb20vdjEvcGtpL2NhbnZhLXByb2QvbDEvc2lnbmluZy9vY3NwMHcGCCsGAQUFBzAChmtodHRwczovL3BraS5jYW52YS1pbnRlcm5hbC5jb20vdjEvcGtpL2NhbnZhLXByb2QvbDEvc2lnbmluZy9pc3N1ZXIvMWRjNDVjODQtNGY5My1lMTBlLTRjMzYtZTdkZWFhMjU2MzkyL2RlcjCBgAYDVR0fBHkwdzB1oHOgcYZvaHR0cHM6Ly9wa2kuY2FudmEtaW50ZXJuYWwuY29tL3YxL3BraS9jYW52YS1wcm9kL2wxL3NpZ25pbmcvaXNzdWVyLzFkYzQ1Yzg0LTRmOTMtZTEwZS00YzM2LWU3ZGVhYTI1NjM5Mi9jcmwvZGVyMA0GCSqGSIb3DQEBCwUAA4ICAQDNfjIg6gXGHvpraWDf3zA0vWoyA0p0++hxxDULe7XR/8/R0LDBCDEHS4hX5TVmk0es6dCsuEKYpvpEtbUoHIlet5lGrIOFcNwcAcDAWoCdD+ypPaIwnC8PICtPMGxGwFG8SyFRmahDMYt3suZSpQnXnVc+dMrRbze3ZrT5740t6s8O5FeFlvLrUG3x9yJDgrbKSUsC8OmR+4aRY8HoZ5ZuCwOmCdV+7y/PGy+etJ4tQzTSoIWUguiTvCUoV/y6zp+dO2aSCNWUVbioKLLMSbDoAJMmZ+lhKvUWPoBXJwcLLo5prpV/50HP0pS0exBk2rss4rga+okUNT8HZyayQnjv3b+sYwNDULhUPRu0auY7+l8uad71K97Nzori06Tt9FDzFQ/bGk3mIKRc1Sy7mJKU62r37xs2UhyTkMTQ/boTMuU/doP2K2vsHbZHJC1yg6hFn7jrnUfjd+laXS+BlyltiN4TVQGFR6gUlovj81RzEUYp3F3V0q1xwvwRNITQbWP3KlVsMuEsonOEryDB+e+Pi7HJ0HsGKSltCYXOgz1M488sWy8cJZK1UO2lTl8p1tD2zspIfGjEdJyiusKh+Zskm48VvhMOgSNTdS4ZyubDsFYU5G8/aSbyI3sNKwLjm6ikkrtOpiGrLai5cdM/u3EurdZ/RLYMGEFy68oSOIV3tlkGSjCCBkYwggQuoAMCAQICEQDJtWzGUz0MB/MhdTvrUGHhMA0GCSqGSIb3DQEBDQUAMIGBMQswCQYDVQQGEwJBVTETMBEGA1UECgwKQ2FudmEgUHJvZDEXMBUGA1UECwwOQ2xvdWQgUGxhdGZvcm0xDDAKBgNVBAgMA05TVzElMCMGA1UEAwwcQ2FudmEgUHJvZCBSb290IENBIEdsb2JhbCBHMzEPMA0GA1UEBwwGU3lkbmV5MB4XDTI2MDUxNTAzMTI1NVoXDTI2MTExMTAzMTI1NVowbTELMAkGA1UEBhMCQVUxDDAKBgNVBAgTA05TVzEPMA0GA1UEBxMGU3lkbmV5MRMwEQYDVQQKEwpDYW52YSBQcm9kMRAwDgYDVQQLEwdTaWduaW5nMRgwFgYDVQQDEw9TaWduaW5nIENBIFByb2QwggIiMA0GCSqGSIb3DQEBAQUAA4ICDwAwggIKAoICAQD0MHZe4JEmHf4WkG5+tA+VwWcyYzsYw19aFaMnh/QZp8Awkci8GjqGdN09zzOrYEp6k9nAXTT0Y7H3tIUhpDIWy0jqysBROIYvKdGkz5Lp4MH3hB6nXnIiLwXpHfq/O95Cs8Q7wrmMoB1DPMLXBNfA/qRFqQeGVgL2UlxPchxkM1l1jEhSftxgZ09KpYFqcLeDEyPB2+nrfsX9qGuYLnmJOEZs1EtmLa5qjqbdGp7mlO8QawHQUmZ2QsD7YJDoSb7wU3XOHn/6h7ps5rVhTK516ryakEKf9P109m376yyUoyfGxqQD5E4KtlaTVsH0AWon+L3Mo0cpn/QxLikF+2iR2RGxyVsMUaQLwW0UXWlOw471623wcrsvkGZ+Ys40G+QOBrIHa/bq0cA6HZvxSNQt6I7+M0GDbGz2kdD3CobNaXXNGFt4y+qXjoMbx/NLfMhC5+frDobUF8RUSkCQ+Snzi95PibxJFHaInji8LrjueMnunf851089syyrXNqBaFQbyY/1tkESEeQmFudPrDl7qwh6sHSzWLOzrmdKZzJd49+ABzlAcOGU+b6l33JyP7TDzxGsZMRyQaEeQaYELwPIeENs1cIfFRLVlfQimCg0J6db37RK7GIG4z/yrvMbz9vnkk9ckzBF+3CzTtT8z/mtinltewY4QDpPdCfbPa/3fQIDAQABo4HLMIHIMBIGA1UdEwEB/wQIMAYBAf8CAQEwHwYDVR0jBBgwFoAUuzhkeWmWJGuw/pESspQ08s+cY4swHQYDVR0OBBYEFEpcbf53UGi9YylhZO2G4iHLBOMdMA4GA1UdDwEB/wQEAwIBhjBiBgNVHR8EWzBZMFegVaBThlFodHRwOi8vZDF1YWRuMHBqc2loOG0uY2xvdWRmcm9udC5uZXQvY3JsLzVlNDliYWRkLTBhNjYtNGYzYS1iM2NmLTFhNGZkMGY2MzVkMS5jcmwwDQYJKoZIhvcNAQENBQADggIBAKqOtwanq6lfW6XuFzlw/EJHJ2wVi9XY9dTjNZSPlIr3fnJ2qz2JRZ3f5VCa/+TmA9p2wv5aBNKSJyN4/uX1/qPxFunqykKFx3mNDD09JmxMEA1kTsjEePbhf5eBBlw2yg4lC3X+E/PTnx8VXTjwbG9jcaNGbJrD1/SZtYgjbti8YKnZMOeMh93wtv6NttshgFRcxUmS6sbvvhcAKi3U/YsMnbtSBJJH1dirr6rQuGSaghdLbxawcLd1OfMnw8aKe+G+4TOuKjQ10dwvMKwlBRTcnNJuun+vBvPujqfNmt5mc+0Hu2pDwtHB+LbmpC+hx2ksSmgTCLMjC+oiJUeAFnq1EVJlB++nqKzC4uD3XayTG1jvZ8JlJeZwdCIbo16DWmDP5eUrLiDJ8t/cR46hWzlmk549H1f9UZqiTMCyODjrnO0xbwm9yynPJCMvcN98sqWjOGSWQQPUXAqsMdNMzm1hWdjNzxntt5q9uYRa9rvYcmeu8M9Ek8Lz1sWoEaVcpkdI/XOZBY1nJC/xItlK22e39DS/JQibDVZgKsfkOkZ+tXn3rlD7zxpuJMvUtBmRnhA3iqZxa50+XEk1P2fxX2Ke4A025hkk4oVJY2+JZjWgD1qYvXZ5WRHZSU8SMiwx1iiw2PXcF8H/yEeEisZlIGM21Lc4gzhUmRLxrrTsDbbvoWNwYWRZKO8AAAAAAAAAAAAAAAAAAAAAAAAAAAAAAAAAAAAAAAAAAAAAAAAAAAAAAAAAAAAAAAAAAAAAAAAAAAAAAAAAAAAAAAAAAAAAAAAAAAAAAAAAAAAAAAAAAAAAAAAAAAAAAAAAAAAAAAAAAAAAAAAAAAAAAAAAAAAAAAAAAAAAAAAAAAAAAAAAAAAAAAAAAAAAAAAAAAAAAAAAAAAAAAAAAAAAAAAAAAAAAAAAAAAAAAAAAAAAAAAAAAAAAAAAAAAAAAAAAAAAAAAAAAAAAAAAAAAAAAAAAAAAAAAAAAAAAAAAAAAAAAAAAAAAAAAAAAAAAAAAAAAAAAAAAAAAAAAAAAAAAAAAAAAAAAAAAAAAAAAAAAAAAAAAAAAAAAAAAAAAAAAAAAAAAAAAAAAAAAAAAAAAAAAAAAAAAAAAAAAAAAAAAAAAAAAAAAAAAAAAAAAAAAAAAAAAAAAAAAAAAAAAAAAAAAAAAAAAAAAAAAAAAAAAAAAAAAAAAAAAAAAAAAAAAAAAAAAAAAAAAAAAAAAAAAAAAAAAAAAAAAAAAAAAAAAAAAAAAAAAAAAAAAAAAAAAAAAAAAAAAAAAAAAAAAAAAAAAAAAAAAAAAAAAAAAAAAAAAAAAAAAAAAAAAAAAAAAAAAAAAAAAAAAAAAAAAAAAAAAAAAAAAAAAAAAAAAAAAAAAAAAAAAAAAAAAAAAAAAAAAAAAAAAAAAAAAAAAAAAAAAAAAAAAAAAAAAAAAAAAAAAAAAAAAAAAAAAAAAAAAAAAAAAAAAAAAAAAAAAAAAAAAAAAAAAAAAAAAAAAAAAAAAAAAAAAAAAAAAAAAAAAAAAAAAAAAAAAAAAAAAAAAAAAAAAAAAAAAAAAAAAAAAAAAAAAAAAAAAAAAAAAAAAAAAAAAAAAAAAAAAAAAAAAAAAAAAAAAAAAAAAAAAAAAAAAAAAAAAAAAAAAAAAAAAAAAAAAAAAAAAAAAAAAAAAAAAAAAAAAAAAAAAAAAAAAAAAAAAAAAAAAAAAAAAAAAAAAAAAAAAAAAAAAAAAAAAAAAAAAAAAAAAAAAAAAAAAAAAAAAAAAAAAAAAAAAAAAAAAAAAAAAAAAAAAAAAAAAAAAAAAAAAAAAAAAAAAAAAAAAAAAAAAAAAAAAAAAAAAAAAAAAAAAAAAAAAAAAAAAAAAAAAAAAAAAAAAAAAAAAAAAAAAAAAAAAAAAAAAAAAAAAAAAAAAAAAAAAAAAAAAAAAAAAAAAAAAAAAAAAAAAAAAAAAAAAAAAAAAAAAAAAAAAAAAAAAAAAAAAAAAAAAAAAAAAAAAAAAAAAAAAAAAAAAAAAAAAAAAAAAAAAAAAAAAAAAAAAAAAAAAAAAAAAAAAAAAAAAAAAAAAAAAAAAAAAAAAAAAAAAAAAAAAAAAAAAAAAAAAAAAAAAAAAAAAAAAAAAAAAAAAAAAAAAAAAAAAAAAAAAAAAAAAAAAAAAAAAAAAAAAAAAAAAAAAAAAAAAAAAAAAAAAAAAAAAAAAAAAAAAAAAAAAAAAAAAAAAAAAAAAAAAAAAAAAAAAAAAAAAAAAAAAAAAAAAAAAAAAAAAAAAAAAAAAAAAAAAAAAAAAAAAAAAAAAAAAAAAAAAAAAAAAAAAAAAAAAAAAAAAAAAAAAAAAAAAAAAAAAAAAAAAAAAAAAAAAAAAAAAAAAAAAAAAAAAAAAAAAAAAAAAAAAAAAAAAAAAAAAAAAAAAAAAAAAAAAAAAAAAAAAAAAAAAAAAAAAAAAAAAAAAAAAAAAAAAAAAAAAAAAAAAAAAAAAAAAAAAAAAAAAAAAAAAAAAAAAAAAAAAAAAAAAAAAAAAAAAAAAAAAAAAAAAAAAAAAAAAAAAAAAAAAAAAAAAAAAAAAAAAAAAAAAAAAAAAAAAAAAAAAAAAAAAAAAAAAAAAAAAAAAAAAAAAAAAAAAAAAAAAAAAAAAAAAAAAAAAAAAAAAAAAAAAAAAAAAAAAAAAAAAAAAAAAAAAAAAAAAAAAAAAAAAAAAAAAAAAAAAAAAAAAAAAAAAAAAAAAAAAAAAAAAAAAAAAAAAAAAAAAAAAAAAAAAAAAAAAAAAAAAAAAAAAAAAAAAAAAAAAAAAAAAAAAAAAAAAAAAAAAAAAAAAAAAAAAAAAAAAAAAAAAAAAAAAAAAAAAAAAAAAAAAAAAAAAAAAAAAAAAAAAAAAAAAAAAAAAAAAAAAAAAAAAAAAAAAAAAAAAAAAAAAAAAAAAAAAAAAAAAAAAAAAAAAAAAAAAAAAAAAAAAAAAAAAAAAAAAAAAAAAAAAAAAAAAAAAAAAAAAAAAAAAAAAAAAAAAAAAAAAAAAAAAAAAAAAAAAAAAAAAAAAAAAAAAAAAAAAAAAAAAAAAAAAAAAAAAAAAAAAAAAAAAAAAAAAAAAAAAAAAAAAAAAAAAAAAAAAAAAAAAAAAAAAAAAAAAAAAAAAAAAAAAAAAAAAAAAAAAAAAAAAAAAAAAAAAAAAAAAAAAAAAAAAAAAAAAAAAAAAAAAAAAAAAAAAAAAAAAAAAAAAAAAAAAAAAAAAAAAAAAAAAAAAAAAAAAAAAAAAAAAAAAAAAAAAAAAAAAAAAAAAAAAAAAAAAAAAAAAAAAAAAAAAAAAAAAAAAAAAAAAAAAAAAAAAAAAAAAAAAAAAAAAAAAAAAAAAAAAAAAAAAAAAAAAAAAAAAAAAAAAAAAAAAAAAAAAAAAAAAAAAAAAAAAAAAAAAAAAAAAAAAAAAAAAAAAAAAAAAAAAAAAAAAAAAAAAAAAAAAAAAAAAAAAAAAAAAAAAAAAAAAAAAAAAAAAAAAAAAAAAAAAAAAAAAAAAAAAAAAAAAAAAAAAAAAAAAAAAAAAAAAAAAAAAAAAAAAAAAAAAAAAAAAAAAAAAAAAAAAAAAAAAAAAAAAAAAAAAAAAAAAAAAAAAAAAAAAAAAAAAAAAAAAAAAAAAAAAAAAAAAAAAAAAAAAAAAAAAAAAAAAAAAAAAAAAAAAAAAAAAAAAAAAAAAAAAAAAAAAAAAAAAAAAAAAAAAAAAAAAAAAAAAAAAAAAAAAAAAAAAAAAAAAAAAAAAAAAAAAAAAAAAAAAAAAAAAAAAAAAAAAAAAAAAAAAAAAAAAAAAAAAAAAAAAAAAAAAAAAAAAAAAAAAAAAAAAAAAAAAAAAAAAAAAAAAAAAAAAAAAAAAAAAAAAAAAAAAAAAAAAAAAAAAAAAAAAAAAAAAAAAAAAAAAAAAAAAAAAAAAAAAAAAAAAAAAAAAAAAAAAAAAAAAAAAAAAAAAAAAAAAAAAAAAAAAAAAAAAAAAAAAAAAAAAAAAAAAAAAAAAAAAAAAAAAAAAAAAAAAAAAAAAAAAAAAAAAAAAAAAAAAAAAAAAAAAAAAAAAAAAAAAAAAAAAAAAAAAAAAAAAAAAAAAAAAAAAAAAAAAAAAAAAAAAAAAAAAAAAAAAAAAAAAAAAAAAAAAAAAAAAAAAAAAAAAAAAAAAAAAAAAAAAAAAAAAAAAAAAAAAAAAAAAAAAAAAAAAAAAAAAAAAAAAAAAAAAAAAAAAAAAAAAAAAAAAAAAAAAAAAAAAAAAAAAAAAAAAAAAAAAAAAAAAAAAAAAAAAAAAAAAAAAAAAAAAAAAAAAAAAAAAAAAAAAAAAAAAAAAAAAAAAAAAAAAAAAAAAAAAAAAAAAAAAAAAAAAAAAAAAAAAAAAAAAAAAAAAAAAAAAAAAAAAAAAAAAAAAAAAAAAAAAAAAAAAAAAAAAAAAAAAAAAAAAAAAAAAAAAAAAAAAAAAAAAAAAAAAAAAAAAAAAAAAAAAAAAAAAAAAAAAAAAAAAAAAAAAAAAAAAAAAAAAAAAAAAAAAAAAAAAAAAAAAAAAAAAAAAAAAAAAAAAAAAAAAAAAAAAAAAAAAAAAAAAAAAAAAAAAAAAAAAAAAAAAAAAAAAAAAAAAAAAAAAAAAAAAAAAAAAAAAAAAAAAAAAAAAAAAAAAAAAAAAAAAAAAAAAAAAAAAAAAAAAAAAAAAAAAAAAAAAAAAAAAAAAAAAAAAAAAAAAAAAAAAAAAAAAAAAAAAAAAAAAAAAAAAAAAAAAAAAAAAAAAAAAAAAAAAAAAAAAAAAAAAAAAAAAAAAAAAAAAAAAAAAAAAAAAAAAAAAAAAAAAAAAAAAAAAAAAAAAAAAAAAAAAAAAAAAAAAAAAAAAAAAAAAAAAAAAAAAAAAAAAAAAAAAAAAAAAAAAAAAAAAAAAAAAAAAAAAAAAAAAAAAAAAAAAAAAAAAAAAAAAAAAAAAAAAAAAAAAAAAAAAAAAAAAAAAAAAAAAAAAAAAAAAAAAAAAAAAAAAAAAAAAAAAAAAAAAAAAAAAAAAAAAAAAAAAAAAAAAAAAAAAAAAAAAAAAAAAAAAAAAAAAAAAAAAAAAAAAAAAAAAAAAAAAAAAAAAAAAAAAAAAAAAAAAAAAAAAAAAAAAAAAAAAAAAAAAAAAAAAAAAAAAAAAAAAAAAAAAAAAAAAAAAAAAAAAAAAAAAAAAAAAAAAAAAAAAAAAAAAAAAAAAAAAAAAAAAAAAAAAAAAAAAAAAAAAAAAAAAAAAAAAAAAAAAAAAAAAAAAAAAAAAAAAAAAAAAAAAAAAAAAAAAAAAAAAAAAAAAAAAAAAAAAAAAAAAAAAAAAAAAAAAAAAAAAAAAAAAAAAAAAAAAAAAAAAAAAAAAAAAAAAAAAAAAAAAAAAAAAAAAAAAAAAAAAAAAAAAAAAAAAAAAAAAAAAAAAAAAAAAAAAAAAAAAAAAAAAAAAAAAAAAAAAAAAAAAAAAAAAAAAAAAAAAAAAAAAAAAAAAAAAAAAAAAAAAAAAAAAAAAAAAAAAAAAAAAAAAAAAAAAAAAAAAAAAAAAAAAAAAAAAAAAAAAAAAAAAAAAAAAAAAAAAAAAAAAAAAAAAAAAAAAAAAAAAAAAAAAAAAAAAAAAAAAAAAAAAAAAAAAAAAAAAAAAAAAAAAAAAAAAAAAAAAAAAAAAAAAAAAAAAAAAAAAAAAAAAAAAAAAAAAAAAAAAAAAAAAAAAAAAAAAAAAAAAAAAAAAAAAAAAAAAAAAAAAAAAAAAAAAAAAAAAAAAAAAAAAAAAAAAAAAAAAAAAAAAAAAAAAAAAAAAAAAAAAAAAAAAAAAAAAAAAAAAAAAAAAAAAAAAAAAAAAAAAAAAAAAAAAAAAAAAAAAAAAAAAAAAAAAAAAAAAAAAAAAAAAAAAAAAAAAAAAAAAAAAAAAAAAAAAAAAAAAAAAAAAAAAAAAAAAAAAAAAAAAAAAAAAAAAAAAAAAAAAAAAAAAAAAAAAAAAAAAAAAAAAAAAAAAAAAAAAAAAAAAAAAAAAAAAAAAAAAAAAAAAAAAAAAAAAAAAAAAAAAAAAAAAAAAAAAAAAAAAAAAAAAAAAAAAAAAAAAAAAAAAAAAAAAAAAAAAAAAAAAAAAAAAAAAAAAAAAAAAAAAAAAAAAAAAAAAAAAAAAAAAAAAAAAAAAAAAAAAAAAAAAAAAAAAAAAAAAAAAAAAAAAAAAAAAAAAAAAAAAAAAAAAAAAAAAAAAAAAAAAAAAAAAAAAAAAAAAAAAAAAAAAAAAAAAAAAAAAAAAAAAAAAAAAAAAAAAAAAAAAAAAAAAAAAAAAAAAAAAAAAAAAAAAAAAAAAAAAAAAAAAAAAAAAAAAAAAAAAAAAAAAAAAAAAAAAAAAAAAAAAAAAAAAAAAAAAAAAAAAAAAAAAAAAAAAAAAAAAAAAAAAAAAAAAAAAAAAAAAAAAAAAAAAAAAAAAAAAAAAAAAAAAAAAAAAAAAAAAAAAAAAAAAAAAAAAAAAAAAAAAAAAAAAAAAAAAAAAAAAAAAAAAAAAAAAAAAAAAAAAAAAAAAAAAAAAAAAAAAAAAAAAAAAAAAAAAAAAAAAAAAAAAAAAAAAAAAAAAAAAAAAAAAAAAAAAAAAAAAAAAAAAAAAAAAAAAAAAAAAAAAAAAAAAAAAAAAAAAAAAAAAAAAAAAAAAAAAAAAAAAAAAAAAAAAAAAAAAAAAAAAAAAAAAAAAAAAAAAAAAAAAAAAAAAAAAAAAAAAAAAAAAAAAAAAAAAAAAAAAAAAAAAAAAAAAAAAAAAAAAAAAAAAAAAAAAAAAAAAAAAAAAAAAAAAAAAAAAAAAAAAAAAAAAAAAAAAAAAAAAAAAAAAAAAAAAAAAAAAAAAAAAAAAAAAAAAAAAAAAAAAAAAAAAAAAAAAAAAAAAAAAAAAAAAAAAAAAAAAAAAAAAAAAAAAAAAAAAAAAAAAAAAAAAAAAAAAAAAAAAAAAAAAAAAAAAAAAAAAAAAAAAAAAAAAAAAAAAAAAAAAAAAAAAAAAAAAAAAAAAAAAAAAAAAAAAAAAAAAAAAAAAAAAAAAAAAAAAAAAAAAAAAAAAAAAAAAAAAAAAAAAAAAAAAAAAAAAAAAAAAAAAAAAAAAAAAAAAAAAAAAAAAAAAAAAAAAAAAAAAAAAAAAAAAAAAAAAAAAAAAAAAAAAAAAAAAAAAAAAAAAAAAAAAAAAAAAAAAAAAAAAAAAAAAAAAAAAAAAAAAAAAAAAAAAAAAAAAAAAAAAAAAAAAAAAAAAAAAAAAAAAAAAAAAAAAAAAAAAAAAAAAAAAAAAAAAAAAAAAAAAAAAAAAAAAAAAAAAAAAAAAAAAAAAAAAAAAAAAAAAAAAAAAAAAAAAAAAAAAAAAAAAAAAAAAAAAAAAAAAAAAAAAAAAAAAAAAAAAAAAAAAAAAAAAAAAAAAAAAAAAAAAAAAAAAAAAAAAAAAAAAAAAAAAAAAAAAAAAAAAAAAAAAAAAAAAAAAAAAAAAAAAAAAAAAAAAAAAAAAAAAAAAAAAAAAAAAAAAAAAAAAAAAAAAAAAAAAAAAAAAAAAAAAAAAAAAAAAAAAAAAAAAAAAAAAAAAAAAAAAAAAAAAAAAAAAAAAAAAAAAAAAAAAAAAAAAAAAAAAAAAAAAAAAAAAAAAAAAAAAAAAAAAAAAAAAAAAAAAAAAAAAAAAAAAAAAAAAAAAAAAAAAAAAAAAAAAAAAAAAAAAAAAAAAAAAAAAAAAAAAAAAAAAAAAAAAAAAAAAAAAAAAAAAAAAAAAAAAAAAAAAAAAAAAAAAAAAAAAAAAAAAAAAAAAAAAAAAAAAAAAAAAAAAAAAAAAAAAAAAAAAAAAAAAAAAAAAAAAAAAAAAAAAAAAAAAAAAAAAAAAAAAAAAAAAAAAAAAAAAAAAAAAAAAAAAAAAAAAAAAAAAAAAAAAAAAAAAAAAAAAAAAAAAAAAAAAAAAAAAAAAAAAAAAAAAAAAAAAAAAAAAAAAAAAAAAAAAAAAAAAAAAAAAAAAAAAAAAAAAAAAAAAAAAAAAAAAAAAAAAAAAAAAAAAAAAAAAAAAAAAAAAAAAAAAAAAAAAAAAAAAAAAAAAAAAAAAAAAAAAAAAAAAAAAAAAAAAAAAAAAAAAAAAAAAAAAAAAAAAAAAAAAAAAAAAAAAAAAAAAAAAAAAAAAAAAAAAAAAAAAAAAAAAAAAAAAAAAAAAAAAAAAAAAAAAAAAAAAAAAAAAAAAAAAAAAAAAAAAAAAAAAAAAAAAAAAAAAAAAAAAAAAAAAAAAAAAAAAAAAAAAAAAAAAAAAAAAAAAAAAAAAAAAAAAAAAAAAAAAAAAAAAAAAAAAAAAAAAAAAAAAAAAAAAAAAAAAAAAAAAAAAAAAAAAAAAAAAAAAAAAAAAAAAAAAAAAAAAAAAAAAAAAAAAAAAAAAAAAAAAAAAAAAAAAAAAAAAAAAAAAAAAAAAAAAAAAAAAAAAAAAAAAAAAAAAAAAAAAAAAAAAAAAAAAAAAAAAAAAAAAAAAAAAAAAAAAAAAAAAAAAAAAAAAAAAAAAAAAAAAAAAAAAAAAAAAAAAAAAAAAAAAAAAAAAAAAAAAAAAAAAAAAAAAAAAAAAAAAAAAAAAAAAAAAAAAAAAAAAAAAAAAAAAAAAAAAAAAAAAAAAAAAAAAAAAAAAAAAAAAAAAAAAAAAAAAAAAAAAAAAAAAAAAAAAAAAAAAAAAAAAAAAAAAAAAAAAAAAAAAAAAAAAAAAAAAAAAAAAAAAAAAAAAAAAAAAAAAAAAAAAAAAAAAAAAAAAAAAAAAAAAAAAAAAAAAAAAAAAAAAAAAAAAAAAAAAAAAAAAAAAAAAAAAAAAAAAAAAAAAAAAAAAAAAAAAAAAAAAAAAAAAAAAAAAAAAAAAAAAAAAAAAAAAAAAAAAAAAAAAAAAAAAAAAAAAAAAAAAAAAAAAAAAAAAAAAAAAAAAAAAAAAAAAAAAAAAAAAAAAAAAAAAAAAAAAAAAAAAAAAAAAAAAAAAAAAAAAAAAAAAAAAAAAAAAAAAAAAAAAAAAAAAAAAAAAAAAAAAAAAAAAAAAAAAAAAAAAAAAAAAAAAAAAAAAAAAAAAAAAAAAAAAAAAAAAAAAAAAAAAAAAAAAAAAAAAAAAAAAAAAAAAAAAAAAAAAAAAAAAAAAAAAAAAAAAAAAAAAAAAAAAAAAAAAAAAAAAAAAAAAAAAAAAAAAAAAAAAAAAAAAAAAAAAAAAAAAAAAAAAAAAAAAAAAAAAAAAAAAAAAAAAAAAAAAAAAAAAAAAAAAAAAAAAAAAAAAAAAAAAAAAAAAAAAAAAAAAAAAAAAAAAAAAAAAAAAAAAAAAAAAAAAAAAAAAAAAAAAAAAAAAAAAAAAAAAAAAAAAAAAAAAAAAAAAAAAAAAAAAAAAAAAAAAAAAAAAAAAAAAAAAAAAAAAAAAAAAAAAAAAAAAAAAAAAAAAAAAAAAAAAAAAAAAAAAAAAAAAAAAAAAAAAAAAAAAAAAAAAAAAAAAAAAAAAAAAAAAAAAAAAAAAAAAAAAAAAAAAAAAAAAAAAAAAAAAAAAAAAAAAAAAAAAAAAAAAAAAAAAAAAAAAAAAAAAAAAAAAAAAAAAAAAAAAAAAAAAAAAAAAAAAAAAAAAAAAAAAAAAAAAAAAAAAAAAAAAAAAAAAAAAAAAAAAAAAAAAAAAAAAAAAAAAAAAAAAAAAAAAAAAAAAAAAAAAAAAAAAAAAAAAAAAAAAAAAAAAAAAAAAAAAAAAAAAAAAAAAAAAAAAAAAAAAAAAAAAAAAAAAAAAAAAAAAAAAAAAAAAAAAAAAAAAAAAAAAAAAAAAAAAAAAAAAAAAAAAAAAAAAAAAAAAAAAAAAAAAAAAAAAAAAAAAAAAAAAAAAAAAAAAAAAAAAAAAAAAAAAAAAAAAAAAAAAAAAAAAAAAAAAAAAAAAAAAAAAAAAAAAAAAAAAAAAAAAAAAAAAAAAAAAAAAAAAAAAAAAAAAAAAAAAAAAAAAAAAAAAAAAAAAAAAAAAAAAAAAAAAAAAAAAAAAAAAAAAAAAAAAAAAAAAAAAAAAAAAAAAAAAAAAAAAAAAAAAAAAAAAAAAAAAAAAAAAAAAAAAAAAAAAAAAAAAAAAAAAAAAAAAAAAAAAAAAAAAAAAAAAAAAAAAAAAAAAAAAAAAAAAAAAAAAAAAAAAAAAAAAAAAAAAAAAAAAAAAAAAAAAAAAAAAAAAAAAAAAAAAAAAAAAAAAAAAAAAAAAAAAAAAAAAAAAAAAAAAAAAAAAAAAAAAAAAAAAAAAAAAAAAAAAAAAAAAAAAAAAAAAAAAAAAAAAAAAAAAAAAAAAAAAAAAAAAAAAAAAAAAAAAAAAAAAAAAAAAAAAAAAAAAAAAAAAAAAAAAAAAAAAAAAAAAAAAAAAAAAAAAAAAAAAAAAAAAAAAAAAAAAAAAAAAAAAAAAAAAAAAAAAAAAAAAAAAAAAAAAAAAAAAAAAAAAAAAAAAAAAAAAAAAAAAAAAAAAAAAAAAAAAAAAAAAAAAAAAAAAAAAAAAAAAAAAAAAAAAAAAAAAAAAAAAAAAAAAAAAAAAAAAAAAAAAAAAAAAAAAAAAAAAAAAAAAAAAAAAAAAAAAAAAAAAAAAAAAAAAAAAAAAAAAAAAAAAAAAAAAAAAAAAAAAAAAAAAAAAAAAAAAAAAAAAAAAAAAAAAAAAAAAAAAAAAAAAAAAAAAAAAAAAAAAAAAAAAAAAAAAAAAAAAAAAAAAAAAAAAAAAAAAAAAAAAAAAAAAAAAAAAAAAAAAAAAAAAAAAAAAAAAAAAAAAAAAAAAAAAAAAAAAAAAAAAAAAAAAAAAAAAAAAAAAAAAAAAAAAAAAAAAAAAAAAAAAAAAAAAAAAAAAAAAAAAAAAAAAAAAAAAAAAAAAAAAAAAAAAAAAAAAAAAAAAAAAAAAAAAAAAAAAAAAAAAAAAAAAAAAAAAAAAAAAAAAAAAAAAAAAAAAAAAAAAAAAAAAAAAAAAAAAAAAAAAAAAAAAAAAAAAAAAAAAAAAAAAAAAAAAAAAAAAAAAAAAAAAAAAAAAAAAAAAAAAAAAAAAAAAAAAAAAAAAAAAAAAAAAAAAAAAAAAAAAAAAAAAAAAAAAAAAAAAAAAAAAAAAAAAAAAAAAAAAAAAAAAAAAAAAAAAAAAAAAAAAAAAAAAAAAAAAAAAAAAAAAAAAAAAAAAAAAAAAAAAAAAAAAAAAAAAAAAAAAAAAAAAAAAAAAAAAAAAAAAAAAAAAAAAAAAAAAAAAAAAAAAAAAAAAAAAAAAAAAAAAAAAAAAAAAAAAAAAAAAAAAAAAAAAAAAAAAAAAAAAAAAAAAAAAAAAAAAAAAAAAAAAAAAAAAAAAAAAAAAAAAAAAAAAAAAAAAAAAAAAAAAAAAAAAAAAAAAAAAAAAAAAAAAAAAAAAAAAAAAAAAAAAAAAAAAAAAAAAAAAAAAAAAAAAAAAAAAAAAAAAAAAAAAAAAAAAAAAAAAAAAAAAAAAAAAAAAAAAAAAAAAAAAAAAAAAAAAAAAAAAAAAAAAAAAAAAAAAAAAAAAAAAAAAAAAAAAAAAAAAAAAAAAAAAAAAAAAAAAAAAAAAAAAAAAAAAAAAAAAAAAAAAAAAAAAAAAAAAAAAAAAAAAAAAAAAAAAAAAAAAAAAAAAAAAAAAAAAAAAAAAAAAAAAAAAAAAAAAAAAAAAAAAAAAAAAAAAAAAAAAAAAAAAAAAAAAAAAAAAAAAAAAAAAAAAAAAAAAAAAAAAAAAAAAAAAAAAAAAAAAAAAAAAAAAAAAAAAAAAAAAAAAAAAAAAAAAAAAAAAAAAAAAAAAAAAAAAAAAAAAAAAAAAAAAAAAAAAAAAAAAAAAAAAAAAAAAAAAAAAAAAAAAAAAAAAAAAAAAAAAAAAAAAAAAAAAAAAAAAAAAAAAAAAAAAAAAAAAAAAAAAAAAAAAAAAAAAAAAAAAAAAAAAAAAAAAAAAAAAAAAAAAAAAAAAAAAAAAAAAAAAAAAAAAAAAAAAAAAAAAAAAAAAAAAAAAAAAAAAAAAAAAAAAAAAAAAAAAAAAAAAAAAAAAAAAAAAAAAAAAAAAAAAAAAAAAAAAAAAAAAAAAAAAAAAAAAAAAAAAAAAAAAAAAAAAAAAAAAAAAAAAAAAAAAAAAAAAAAAAAAAAAAAAAAAAAAAAAAAAAAAAAAAAAAAAAAAAAAAAAAAAAAAAAAAAAAAAAAAAAAAAAAAAAAAAAAAAAAAAAAAAAAAAAAAAAAAAAAAAAAAAAAAAAAAAAAAAAAAAAAAAAAAAAAAAAAAAAAAAAAAAAAAAAAAAAAAAAAAAAAAAAAAAAAAAAAAAAAAAAAAAAAAAAAAAAAAAAAAAAAAAAAAAAAAAAAAAAAAAAAAAAAAAAAAAAAAAAAAAAAAAAAAAAAAAAAAAAAAAAAAAAAAAAAAAAAAAAAAAAAAAAAAAAAAAAAAAAAAAAAAAAAAAAAAAAAAAAAAAAAAAAAAAAAAAAAAAAAAAAAAAAAAAAAAAAAAAAAAAAAAAAAAAAAAAAAAAAAAAAAAAAAAAAAAAAAAAAAAAAAAAAAAAAAAAAAAAAAAAAAAAAAAAAAAAAAAAAAAAAAAAAAAAAAAAAAAAAAAAAAAAAAAAAAAAAAAAAAAAAAAAAAAAAAAAAAAAAAAAAAAAAAAAAAAAAAAAAAAAAAAAAAAAAAAAAAAAAAAAAAAAAAAAAAAAAAAAAAAAAAAAAAAAAAAAAAAAAAAAAAAAAAAAAAAAAAAAAAAAAAAAAAAAAAAAAAAAAAAAAAAAAAAAAAAAAAAAAAAAAAAAAAAAAAAAAAAAAAAAAAAAAAAAAAAAAAAAAAAAAAAAAAAAAAAAAAAAAAAAAAAAAAAAAAAAAAAAAAAAAAAAAAAAAAAAAAAAAAAAAAAAAAAAAAAAAAAAAAAAAAAAAAAAAAAAAAAAAAAAAAAAAAAAAAAAAAAAAAAAAAAAAAAAAAAAAAAAAAAAAAAAAAAAAAAAAAAAAAAAAAAAAAAAAAAAAAAAAAAAAAAAAAAAAAAAAAAAAAAAAAAAAAAAAAAAAAAAAAAAAAAAAAAAAAAAAAAAAAAAAAAAAAAAAAAAAAAAAAAAAAAAAAAAAAAAAAAAAAAAAAAAAAAAAAAAAAAAAAAAAAAAAAAAAAAAAAAAAAAAAAAAAAAAAAAAAAAAAAAAAAAAAAAAAAAAAAAAAAAAAAAAAAAAAAAAAAAAAAAAAAAAAAAAAAAAAAAAAAAAAAAAAAAAAAAAAAAAAAAAAAAAAAAAAAAAAAAAAAAAAAAAAAAAAAAAAAAAAAAAAAAAAAAAAAAAAAAAAAAAAAAAAAAAAAAAAAAAAAAAAAAAAAAAAAAAAAAAAAAAAAAAAAAAAAAAAAAAAAAAAAAAAAAAAAAAAAAAAAAAAAAAAAAAAAAAAAAAAAAAAAAAAAAAAAAAAAAAAAAAAAAAAAAAAAAAAAAAAAAAAAAAAAAAAAAAAAAAAAAAAAAAAAAAAAAAAAAAAAAAAAAAAAAAAAAAAAAAAAAAAAAAAAAAAAAAAAAAAAAAAAAAAAAAAAAAAAAAAAAAAAAAAAAAAAAAAAAAAAAAAAAAAAAAAAAAAAAAAAAAAAAAAAAAAAAAAAAAAAAAAAAAAAAAAAAAAAAAAAAAAAAAAAAAAAAAAAAAAAAAAAAAAAAAAAAAAAAAAAAAAAAAAAAAAAAAAAAAAAAAAAAAAAAAAAAAAAAAAAAAAAAAAAAAAAAAAAAAAAAAAAAAAAAAAAAAAAAAAAAAAAAAAAAAAAAAAAAAAAAAAAAAAAAAAAAAAAAAAAAAAAAAAAAAAAAAAAAAAAAAAAAAAAAAAAAAAAAAAAAAAAAAAAAAAAAAAAAAAAAAAAAAAAAAAAAAAAAAAAAAAAAAAAAAAAAAAAAAAAAAAAAAAAAAAAAAAAAAAAAAAAAAAAAAAAAAAAAAAAAAAAAAAAAAAAAAAAAAAAAAAAAAAAAAAAAAAAAAAAAAAAAAAAAAAAAAAAAAAAAAAAAAAAAAAAAAAAAAAAAAAAAAAAAAAAAAAAAAAAAAAAAAAAAAAAAAAAAAAAAAAAAAAAAAAAAAAAAAAAAAAAAAAAAAAAAAAAAAAAAAAAAAAAAAAAAAAAAAAAAAAAAAAAAAAAAAAAAAAAAAAAAAAAAAAAAAAAAAAAAAAAAAAAAAAAAAAAAAAAAAAAAAAAAAAAAAAAAAAAAAAAAAAAAAAAAAAAAAAAAAAAAAAAAAAAAAAAAAAAAAAAAAAAAAAAAAAAAAAAAAAAAAAAAAAAAAAAAAAAAAAAAAAAAAAAAAAAAAAAAAAAAAAAAAAAAAAAAAAAAAAAAAAAAAAAAAAAAAAAAAAAAAAAAAAAAAAAAAAAAAAAAAAAAAAAAAAAAAAAAAAAAAAAAAAAAAAAAAAAAAAAAAAAAAAAAAAAAAAAAAAAAAAAAAAAAAAAAAAAAAAAAAAAAAAAAAAAAAAAAAAAAAAAAAAAAAAAAAAAAAAAAAAAAAAAAAAAAAAAAAAAAAAAAAAAAAAAAAAAAAAAAAAAAAAAAAAAAAAAAAAAAAAAAAAAAAAAAAAAAAAAAAAAAAAAAAAAAAAAAAAAAAAAAAAAAAAAAAAAAAAAAAAAAAAAAAAAAAAAAAAAAAAAAAAAAAAAAAAAAAAAAAAAAAAAAAAAAAAAAAAAAAAAAAAAAAAAAAAAAAAAAAAAAAAAAAAAAAAAAAAAAAAAAAAAAAAAAAAAAAAAAAAAAAAAAAAAAAAAAAAAAAAAAAAAAAAAAAAAAAAAAAAAAAAAAAAAAAAAAAAAAAAAAAAAAAAD2WQIAHFHgnhYmIVgkkZYVFUrZkXkiK4JJsXClf7t8mHaKTqTqySPQ3RPm6MKxJ8uFry5pOvKGrUu0iAZCh8o7hdKE63m7WtNiO9QgBQQPyrYH+AzAs9RDmcOYEWYJGxzlcLZIWTRmg4xjPWsTn4E7SCKbH2781KkoLFQjtURo/6gpFtWxnPcSJZvXlxxcPOQ+IvSbFHodbm0zxnK+vTyH5yqmLs1HzysrKhGLPtVCPxMwR7nvOBGZ7l2Ee1l9sV61MEHoKSE+870hewaqjhhCwF1uAROOWUf6hcXNMUIJBP+wjkjekVJhRHlWbEtGGKtVV09bzW57xdap/ZfVjdOj5uM4DGoftzLlrYwNhpTJI+v1KuDSTSA6IiqkOEK7LoAbl7ee1ooxPH45XiFm0JSO4wXP/28Ws01oeCyL4bOlfLhRfIO3nqU3yU7taKrUt9QzTdqohJATrsykDmRQGPdhZRsPgGY1tq1fMngFkbR+DFSFaTDvMLBSUxL4TeY6pfJf7JG33RUFFrBg/lCjxBX1os3TI8vxiKsj0ByTpiOD3czxBrjzNStaDKdG0rEXWN9kGjmWCUYK/kHGKj/AhUfOnNf4p8ucN885kX1pdg6raYIKZLmAofdKQKFDQ83563q57qOnZtWb4P/e73KnA2hqybHWeqfUeQSAMBEj4ixqPFY75Gs=</manifest><ContainsAiGeneratedContent>Yes</ContainsAiGeneratedContent></metadata><defs><filter x="0%" y="0%" width="100%" height="100%" id="60ca6084cc"><feColorMatrix values="0 0 0 0 1 0 0 0 0 1 0 0 0 0 1 0 0 0 1 0" color-interpolation-filters="sRGB"></feColorMatrix></filter><filter x="0%" y="0%" width="100%" height="100%" id="85f3009fc2"><feColorMatrix values="0 0 0 0 1 0 0 0 0 1 0 0 0 0 1 0.2126 0.7152 0.0722 0 0" color-interpolation-filters="sRGB"></feColorMatrix></filter><g></g><clipPath id="9a62f58b41"><path d="M 187.5 679 L 328.5 679 L 328.5 891 L 187.5 891 Z M 187.5 679 " clip-rule="nonzero"></path></clipPath><mask id="0a5e4e7dbf"><g filter="url(#60ca6084cc)"><g filter="url(#85f3009fc2)" transform="matrix(1.247788, 0, 0, 1.248529, 187.500017, 678.749936)"><image x="0" y="0" width="113" height="170" preserveAspectRatio="xMidYMid meet"></image></g></g></mask></defs><g clip-path="url(#9a62f58b41)"><g mask="url(#0a5e4e7dbf)"><g transform="matrix(1.247788, 0, 0, 1.248529, 187.500017, 678.749936)"><image x="0" y="0" width="113" height="170" preserveAspectRatio="xMidYMid meet"></image></g></g></g><g fill="#1b1b1b" fill-opacity="1"><g transform="translate(342.000004, 851.624907)"><g><path d="M 10.75 0 L 10.75 -123.734375 L 60.296875 -123.734375 C 73.941406 -123.734375 84.195312 -120.757812 91.0625 -114.8125 C 97.9375 -108.875 101.375 -101.273438 101.375 -92.015625 C 101.375 -84.722656 99.257812 -78.832031 95.03125 -74.34375 C 90.800781 -69.851562 85.460938 -66.878906 79.015625 -65.421875 L 79.015625 -64.21875 C 83.734375 -64.019531 88.15625 -62.691406 92.28125 -60.234375 C 96.40625 -57.773438 99.753906 -54.347656 102.328125 -49.953125 C 104.910156 -45.566406 106.203125 -40.3125 106.203125 -34.1875 C 106.203125 -27.625 104.582031 -21.765625 101.34375 -16.609375 C 98.101562 -11.453125 93.320312 -7.394531 87 -4.4375 C 80.675781 -1.476562 72.878906 0 63.609375 0 Z M 36.90625 -21.390625 L 58.234375 -21.390625 C 65.566406 -21.390625 70.894531 -22.796875 74.21875 -25.609375 C 77.539062 -28.429688 79.203125 -32.160156 79.203125 -36.796875 C 79.203125 -41.910156 77.378906 -46.097656 73.734375 -49.359375 C 70.085938 -52.617188 65.125 -54.25 58.84375 -54.25 L 36.90625 -54.25 Z M 36.90625 -71.953125 L 56.3125 -71.953125 C 61.664062 -71.953125 66.113281 -73.347656 69.65625 -76.140625 C 73.195312 -78.941406 74.96875 -82.78125 74.96875 -87.65625 C 74.96875 -92.125 73.382812 -95.726562 70.21875 -98.46875 C 67.0625 -101.207031 62.582031 -102.578125 56.78125 -102.578125 L 36.90625 -102.578125 Z M 36.90625 -71.953125 "></path></g></g></g><g fill="#1b1b1b" fill-opacity="1"><g transform="translate(451.024675, 851.624907)"><g><path d="M 36 -123.734375 L 36 0 L 10.265625 0 L 10.265625 -123.734375 Z M 36 -123.734375 "></path></g></g></g><g fill="#1b1b1b" fill-opacity="1"><g transform="translate(493.89789, 851.624907)"><g><path d="M 36.734375 1.75 C 27.867188 1.75 20.515625 -0.5625 14.671875 -5.1875 C 8.835938 -9.820312 5.921875 -16.734375 5.921875 -25.921875 C 5.921875 -32.847656 7.550781 -38.285156 10.8125 -42.234375 C 14.070312 -46.179688 18.347656 -49.066406 23.640625 -50.890625 C 28.941406 -52.722656 34.65625 -53.925781 40.78125 -54.5 C 48.832031 -55.300781 54.585938 -56.144531 58.046875 -57.03125 C 61.515625 -57.914062 63.25 -59.847656 63.25 -62.828125 L 63.25 -63.1875 C 63.25 -67.019531 62.050781 -69.984375 59.65625 -72.078125 C 57.257812 -74.171875 53.867188 -75.21875 49.484375 -75.21875 C 44.847656 -75.21875 41.160156 -74.207031 38.421875 -72.1875 C 35.679688 -70.175781 33.867188 -67.617188 32.984375 -64.515625 L 9.1875 -66.453125 C 10.957031 -74.910156 15.351562 -81.613281 22.375 -86.5625 C 29.40625 -91.519531 38.476562 -94 49.59375 -94 C 56.488281 -94 62.9375 -92.910156 68.9375 -90.734375 C 74.9375 -88.566406 79.773438 -85.175781 83.453125 -80.5625 C 87.140625 -75.945312 88.984375 -69.957031 88.984375 -62.59375 L 88.984375 0 L 64.578125 0 L 64.578125 -12.875 L 63.859375 -12.875 C 61.597656 -8.5625 58.222656 -5.046875 53.734375 -2.328125 C 49.242188 0.386719 43.578125 1.75 36.734375 1.75 Z M 44.109375 -16.015625 C 49.742188 -16.015625 54.375 -17.65625 58 -20.9375 C 61.625 -24.21875 63.4375 -28.296875 63.4375 -33.171875 L 63.4375 -43.015625 C 62.425781 -42.328125 60.863281 -41.722656 58.75 -41.203125 C 56.632812 -40.679688 54.378906 -40.226562 51.984375 -39.84375 C 49.585938 -39.457031 47.441406 -39.125 45.546875 -38.84375 C 41.035156 -38.195312 37.398438 -36.925781 34.640625 -35.03125 C 31.890625 -33.144531 30.515625 -30.390625 30.515625 -26.765625 C 30.515625 -23.222656 31.789062 -20.546875 34.34375 -18.734375 C 36.90625 -16.921875 40.160156 -16.015625 44.109375 -16.015625 Z M 44.109375 -16.015625 "></path></g></g></g><g fill="#1b1b1b" fill-opacity="1"><g transform="translate(589.208982, 851.624907)"><g><path d="M 52.203125 1.8125 C 42.691406 1.8125 34.519531 -0.207031 27.6875 -4.25 C 20.863281 -8.300781 15.628906 -13.929688 11.984375 -21.140625 C 8.347656 -28.347656 6.53125 -36.644531 6.53125 -46.03125 C 6.53125 -55.539062 8.367188 -63.890625 12.046875 -71.078125 C 15.734375 -78.265625 20.976562 -83.878906 27.78125 -87.921875 C 34.59375 -91.972656 42.691406 -94 52.078125 -94 C 60.171875 -94 67.269531 -92.53125 73.375 -89.59375 C 79.476562 -86.65625 84.289062 -82.523438 87.8125 -77.203125 C 91.332031 -71.890625 93.273438 -65.648438 93.640625 -58.484375 L 69.359375 -58.484375 C 68.671875 -63.109375 66.863281 -66.84375 63.9375 -69.6875 C 61.019531 -72.53125 57.207031 -73.953125 52.5 -73.953125 C 46.539062 -73.953125 41.75 -71.550781 38.125 -66.75 C 34.5 -61.957031 32.6875 -55.171875 32.6875 -46.390625 C 32.6875 -37.535156 34.488281 -30.679688 38.09375 -25.828125 C 41.695312 -20.972656 46.5 -18.546875 52.5 -18.546875 C 56.925781 -18.546875 60.648438 -19.882812 63.671875 -22.5625 C 66.691406 -25.238281 68.585938 -29.054688 69.359375 -34.015625 L 93.640625 -34.015625 C 93.234375 -26.921875 91.304688 -20.675781 87.859375 -15.28125 C 84.421875 -9.882812 79.679688 -5.6875 73.640625 -2.6875 C 67.597656 0.308594 60.453125 1.8125 52.203125 1.8125 Z M 52.203125 1.8125 "></path></g></g></g><g fill="#1b1b1b" fill-opacity="1"><g transform="translate(685.728307, 851.624907)"><g><path d="M 10.265625 0 L 10.265625 -123.734375 L 36 -123.734375 L 36 -57.578125 L 37.390625 -57.578125 L 67.125 -92.796875 L 96.65625 -92.796875 L 62.21875 -52.625 L 98.40625 0 L 68.265625 0 L 42.953125 -37.390625 L 36 -29.484375 L 36 0 Z M 10.265625 0 "></path></g></g></g><g fill="#1b1b1b" fill-opacity="1"><g transform="translate(781.281017, 851.624907)"><g><path d="M 10.75 0 L 10.75 -123.734375 L 36.90625 -123.734375 L 36.90625 -21.5625 L 89.953125 -21.5625 L 89.953125 0 Z M 10.75 0 "></path></g></g></g><g fill="#1b1b1b" fill-opacity="1"><g transform="translate(874.41724, 851.624907)"><g><path d="M 36.734375 1.75 C 27.867188 1.75 20.515625 -0.5625 14.671875 -5.1875 C 8.835938 -9.820312 5.921875 -16.734375 5.921875 -25.921875 C 5.921875 -32.847656 7.550781 -38.285156 10.8125 -42.234375 C 14.070312 -46.179688 18.347656 -49.066406 23.640625 -50.890625 C 28.941406 -52.722656 34.65625 -53.925781 40.78125 -54.5 C 48.832031 -55.300781 54.585938 -56.144531 58.046875 -57.03125 C 61.515625 -57.914062 63.25 -59.847656 63.25 -62.828125 L 63.25 -63.1875 C 63.25 -67.019531 62.050781 -69.984375 59.65625 -72.078125 C 57.257812 -74.171875 53.867188 -75.21875 49.484375 -75.21875 C 44.847656 -75.21875 41.160156 -74.207031 38.421875 -72.1875 C 35.679688 -70.175781 33.867188 -67.617188 32.984375 -64.515625 L 9.1875 -66.453125 C 10.957031 -74.910156 15.351562 -81.613281 22.375 -86.5625 C 29.40625 -91.519531 38.476562 -94 49.59375 -94 C 56.488281 -94 62.9375 -92.910156 68.9375 -90.734375 C 74.9375 -88.566406 79.773438 -85.175781 83.453125 -80.5625 C 87.140625 -75.945312 88.984375 -69.957031 88.984375 -62.59375 L 88.984375 0 L 64.578125 0 L 64.578125 -12.875 L 63.859375 -12.875 C 61.597656 -8.5625 58.222656 -5.046875 53.734375 -2.328125 C 49.242188 0.386719 43.578125 1.75 36.734375 1.75 Z M 44.109375 -16.015625 C 49.742188 -16.015625 54.375 -17.65625 58 -20.9375 C 61.625 -24.21875 63.4375 -28.296875 63.4375 -33.171875 L 63.4375 -43.015625 C 62.425781 -42.328125 60.863281 -41.722656 58.75 -41.203125 C 56.632812 -40.679688 54.378906 -40.226562 51.984375 -39.84375 C 49.585938 -39.457031 47.441406 -39.125 45.546875 -38.84375 C 41.035156 -38.195312 37.398438 -36.925781 34.640625 -35.03125 C 31.890625 -33.144531 30.515625 -30.390625 30.515625 -26.765625 C 30.515625 -23.222656 31.789062 -20.546875 34.34375 -18.734375 C 36.90625 -16.921875 40.160156 -16.015625 44.109375 -16.015625 Z M 44.109375 -16.015625 "></path></g></g></g><g fill="#1b1b1b" fill-opacity="1"><g transform="translate(969.728343, 851.624907)"><g><path d="M 10.265625 0 L 10.265625 -92.796875 L 35.21875 -92.796875 L 35.21875 -76.609375 L 36.1875 -76.609375 C 37.875 -82.367188 40.703125 -86.726562 44.671875 -89.6875 C 48.640625 -92.644531 53.242188 -94.125 58.484375 -94.125 C 60.972656 -94.125 63.285156 -93.820312 65.421875 -93.21875 C 67.554688 -92.613281 69.472656 -91.785156 71.171875 -90.734375 L 63.4375 -69.46875 C 62.226562 -70.070312 60.90625 -70.585938 59.46875 -71.015625 C 58.039062 -71.441406 56.441406 -71.65625 54.671875 -71.65625 C 49.472656 -71.65625 45.070312 -69.878906 41.46875 -66.328125 C 37.863281 -62.785156 36.039062 -58.175781 36 -52.5 L 36 0 Z M 10.265625 0 "></path></g></g></g><g fill="#1b1b1b" fill-opacity="1"><g transform="translate(1039.243367, 851.624907)"><g><path d="M 52.203125 1.8125 C 42.691406 1.8125 34.519531 -0.207031 27.6875 -4.25 C 20.863281 -8.300781 15.628906 -13.929688 11.984375 -21.140625 C 8.347656 -28.347656 6.53125 -36.644531 6.53125 -46.03125 C 6.53125 -55.539062 8.367188 -63.890625 12.046875 -71.078125 C 15.734375 -78.265625 20.976562 -83.878906 27.78125 -87.921875 C 34.59375 -91.972656 42.691406 -94 52.078125 -94 C 60.171875 -94 67.269531 -92.53125 73.375 -89.59375 C 79.476562 -86.65625 84.289062 -82.523438 87.8125 -77.203125 C 91.332031 -71.890625 93.273438 -65.648438 93.640625 -58.484375 L 69.359375 -58.484375 C 68.671875 -63.109375 66.863281 -66.84375 63.9375 -69.6875 C 61.019531 -72.53125 57.207031 -73.953125 52.5 -73.953125 C 46.539062 -73.953125 41.75 -71.550781 38.125 -66.75 C 34.5 -61.957031 32.6875 -55.171875 32.6875 -46.390625 C 32.6875 -37.535156 34.488281 -30.679688 38.09375 -25.828125 C 41.695312 -20.972656 46.5 -18.546875 52.5 -18.546875 C 56.925781 -18.546875 60.648438 -19.882812 63.671875 -22.5625 C 66.691406 -25.238281 68.585938 -29.054688 69.359375 -34.015625 L 93.640625 -34.015625 C 93.234375 -26.921875 91.304688 -20.675781 87.859375 -15.28125 C 84.421875 -9.882812 79.679688 -5.6875 73.640625 -2.6875 C 67.597656 0.308594 60.453125 1.8125 52.203125 1.8125 Z M 52.203125 1.8125 "></path></g></g></g><g fill="#1b1b1b" fill-opacity="1"><g transform="translate(1135.762692, 851.624907)"><g><path d="M 36 -53.640625 L 36 0 L 10.265625 0 L 10.265625 -123.734375 L 35.28125 -123.734375 L 35.28125 -76.421875 L 36.375 -76.421875 C 38.507812 -81.898438 41.898438 -86.195312 46.546875 -89.3125 C 51.203125 -92.4375 57.050781 -94 64.09375 -94 C 73.757812 -94 81.53125 -90.894531 87.40625 -84.6875 C 93.289062 -78.488281 96.210938 -69.953125 96.171875 -59.078125 L 96.171875 0 L 70.4375 0 L 70.4375 -54.5 C 70.476562 -60.21875 69.039062 -64.664062 66.125 -67.84375 C 63.207031 -71.019531 59.128906 -72.609375 53.890625 -72.609375 C 48.648438 -72.609375 44.367188 -70.945312 41.046875 -67.625 C 37.722656 -64.3125 36.039062 -59.648438 36 -53.640625 Z M 36 -53.640625 "></path></g></g></g></svg>